<?xml version="1.0" encoding="UTF-8"?>
<svg id="svg1" xmlns="http://www.w3.org/2000/svg" xmlns:svg="http://www.w3.org/2000/svg" xmlns:sodipodi="http://sodipodi.sourceforge.net/DTD/sodipodi-0.dtd" xmlns:inkscape="http://www.inkscape.org/namespaces/inkscape" version="1.1" viewBox="0 0 34.353 28.363">
  <!-- Generator: Adobe Illustrator 29.2.1, SVG Export Plug-In . SVG Version: 2.1.0 Build 116)  -->
  <defs>
    <style>
      .st0 {
        fill: none;
        stroke: #fff;
        stroke-linecap: round;
        stroke-linejoin: round;
        stroke-width: .354px;
      }
    </style>
  </defs>
  <sodipodi:namedview id="namedview1" bordercolor="#000000" borderopacity="0.25" inkscape:deskcolor="#d1d1d1" inkscape:document-units="mm" inkscape:export-bgcolor="#ffffff00" inkscape:pagecheckerboard="0" inkscape:pageopacity="0.0" inkscape:showpageshadow="2" pagecolor="#ffffff"/>
  <g id="layer1" inkscape:groupmode="layer" inkscape:label="Layer 1">
    <rect class="st0" x="-428.999" y="-575.004" width="612" height="2738.072"/>
    <rect class="st0" x="-428.999" y="-575.004" width="612" height="2738.072"/>
    <rect class="st0" x="-428.999" y="-575.004" width="612" height="2738.072"/>
    <rect class="st0" x="-428.999" y="-575.004" width="612" height="2738.072"/>
    <rect class="st0" x="-428.999" y="-575.004" width="612" height="2738.072"/>
  </g>
  <g>
    <g>
      <path class="st0" d="M11.971,9.055l-.075.188c3.69,3.135,9.044,2.144,9.151,2.123h.001c3.342-3.411,3.518-9.688,3.518-9.688-.558-.29-1.101-.527-1.599-.72-1.119-.432-2.335.356-2.397,1.553-.135,2.68-.727,6.667-3.073,5.759-.222-.086-.437-.16-.644-.226-1.533-.48-2.678-.418-3.439-.24-.657.153-1.191.628-1.444,1.251Z"/>
      <path class="st0" d="M.691,22.663c-.262.741.086,1.735.604,2.325,1.219,1.389,4.26,2.925,9.052,2.317.629-.08,1.221-.177,1.774-.289,3.425-.689,6.446-2.638,8.631-5.364,3.956-4.937,10.19-5.997,11.502-9.705,1.447-4.093-2.635-4.599-2.635-4.599l-12.639,14.106s-.826,1.198-3.698,2.832c-1.614.919-5.636.995-8.226.191-1.465-.453-2.667-1.543-2.667-3.079,0-.022.001-.046.001-.068-1.006.089-1.479.711-1.699,1.332Z"/>
    </g>
    <g>
      <path class="st0" d="M8.197,18.378l2.597-6.416,1.101-2.719.075-.188c.253-.624.787-1.098,1.444-1.251.76-.179,1.906-.24,3.439.24.208.066.423.14.644.226,2.346.908,2.938-3.079,3.073-5.759.061-1.197,1.278-1.985,2.397-1.553.498.193,1.041.43,1.599.72,2.051,1.066,4.283,2.837,5.053,5.671l-12.639,14.106"/>
      <path class="st0" d="M11.971,9.055l1.028-3.234c.222-.702,1.043-1.013,1.671-.628.986.604,2.19,1.593,2.19,2.825"/>
      <path class="st0" d="M29.619,7.349s4.082.506,2.635,4.599c-1.311,3.708-7.546,4.768-11.502,9.705-2.185,2.726-5.206,4.675-8.631,5.364-.554.112-1.145.209-1.774.289-4.792.608-7.833-.928-9.052-2.317-.518-.59-.866-1.585-.604-2.325.22-.621.693-1.243,1.699-1.332,0,.022-.001.046-.001.068,0,1.536,1.202,2.625,2.667,3.079,2.59.804,6.612.728,8.226-.191,2.872-1.634,3.698-2.832,3.698-2.832-7.46-.497-8.783-3.077-8.783-3.077l-5.807,2.953"/>
      <line class="st0" x1="30.005" y1="10.79" x2="26.466" y2="14.593"/>
      <path class="st0" d="M21.047,11.366c-.066.068-.133.134-.201.199-4.961,4.711-3.866,9.889-3.866,9.889"/>
      <path class="st0" d="M24.566,1.678s-.176,6.277-3.518,9.688"/>
      <path class="st0" d="M21.048,11.366h-.001c-.107.021-5.461,1.011-9.151-2.123"/>
      <line class="st0" x1="10.795" y1="11.962" x2="13.034" y2="12.692"/>
      <line class="st0" x1="10.072" y1="14.049" x2="12.31" y2="14.779"/>
      <line class="st0" x1="9.255" y1="16.281" x2="11.494" y2="17.011"/>
      <line class="st0" x1="25.964" y1="21.776" x2="31.516" y2="21.776"/>
      <line class="st0" x1="21.829" y1="25.174" x2="30.65" y2="25.174"/>
      <line class="st0" x1="29.947" y1="18.378" x2="33.472" y2="18.378"/>
    </g>
  </g>
</svg>