<?xml version="1.0" encoding="UTF-8"?>
<svg id="svg1" xmlns="http://www.w3.org/2000/svg" xmlns:svg="http://www.w3.org/2000/svg" xmlns:sodipodi="http://sodipodi.sourceforge.net/DTD/sodipodi-0.dtd" xmlns:inkscape="http://www.inkscape.org/namespaces/inkscape" version="1.1" viewBox="0 0 34.353 28.363">
  <!-- Generator: Adobe Illustrator 29.2.1, SVG Export Plug-In . SVG Version: 2.1.0 Build 116)  -->
  <defs>
    <style>
      .st0 {
        fill: none;
        stroke: #fff;
        stroke-linecap: round;
        stroke-linejoin: round;
        stroke-width: .354px;
      }
    </style>
  </defs>
  <sodipodi:namedview id="namedview1" bordercolor="#000000" borderopacity="0.25" inkscape:deskcolor="#d1d1d1" inkscape:document-units="mm" inkscape:export-bgcolor="#ffffff00" inkscape:pagecheckerboard="0" inkscape:pageopacity="0.0" inkscape:showpageshadow="2" pagecolor="#ffffff"/>
  <g id="layer1" inkscape:groupmode="layer" inkscape:label="Layer 1">
    <rect class="st0" x="-428.999" y="-575.004" width="612" height="2738.072"/>
    <rect class="st0" x="-428.999" y="-575.004" width="612" height="2738.072"/>
    <rect class="st0" x="-428.999" y="-575.004" width="612" height="2738.072"/>
    <rect class="st0" x="-428.999" y="-575.004" width="612" height="2738.072"/>
    <rect class="st0" x="-428.999" y="-575.004" width="612" height="2738.072"/>
  </g>
  <g>
    <g>
      <path class="st0" d="M26.796,2.755c5.157,4.359,5.792,11.038-.295,14.913-3.855,2.454-7.147,1.914-11.328,2.655-.596.106-2.595.496-2.999.801-.223.169-.451.575-.718.776-1.648,1.239-2.968,2.82-4.484,4.247-.22.207-.753.462-.826.762-.029.12.128.299.037.472-.085.16-.821.879-.981.941-.253.098-.631-.19-.826-.353-.409-.341-1.842-1.741-1.934-2.181-.078-.374.921-1.498,1.403-1.18l4.903-4.838c.045-.621.918-.909,1.092-1.175.341-.521.64-1.837.792-2.483,1.012-4.287.503-7.782,3.221-11.682C17.14-.287,22.427-.938,26.796,2.755Z"/>
      <path class="st0" d="M16.028,17.794l-3.48,1.445c-.227.019-.626-.646-.799-.826l1.416-3.42c.247-.169.946.879,1.118,1.06.564.596,1.181,1.146,1.745,1.741Z"/>
    </g>
    <g>
      <circle class="st0" cx="22.712" cy="3.513" r=".482"/>
      <circle class="st0" cx="23.937" cy="4.738" r=".482"/>
      <circle class="st0" cx="25.162" cy="5.963" r=".482"/>
      <circle class="st0" cx="26.387" cy="7.188" r=".482"/>
      <circle class="st0" cx="27.613" cy="8.414" r=".482"/>
      <circle class="st0" cx="20.425" cy="3.349" r=".482"/>
      <circle class="st0" cx="21.65" cy="4.574" r=".482"/>
      <circle class="st0" cx="22.875" cy="5.8" r=".482"/>
      <circle class="st0" cx="24.1" cy="7.025" r=".482"/>
      <circle class="st0" cx="25.326" cy="8.25" r=".482"/>
      <circle class="st0" cx="26.551" cy="9.476" r=".482"/>
      <circle class="st0" cx="27.776" cy="10.701" r=".482"/>
      <circle class="st0" cx="19.363" cy="4.411" r=".482"/>
      <circle class="st0" cx="20.588" cy="5.636" r=".482"/>
      <circle class="st0" cx="21.813" cy="6.862" r=".482"/>
      <circle class="st0" cx="23.039" cy="8.087" r=".482"/>
      <circle class="st0" cx="24.264" cy="9.312" r=".482"/>
      <circle class="st0" cx="25.489" cy="10.537" r=".482"/>
      <circle class="st0" cx="26.714" cy="11.763" r=".482"/>
      <circle class="st0" cx="18.301" cy="5.473" r=".482"/>
      <circle class="st0" cx="19.526" cy="6.698" r=".482"/>
      <circle class="st0" cx="20.751" cy="7.923" r=".482"/>
      <circle class="st0" cx="21.977" cy="9.149" r=".482"/>
      <circle class="st0" cx="23.202" cy="10.374" r=".482"/>
      <circle class="st0" cx="24.427" cy="11.599" r=".482"/>
      <circle class="st0" cx="25.653" cy="12.824" r=".482"/>
      <circle class="st0" cx="17.239" cy="6.535" r=".482"/>
      <circle class="st0" cx="18.464" cy="7.76" r=".482"/>
      <circle class="st0" cx="19.69" cy="8.985" r=".482"/>
      <circle class="st0" cx="20.915" cy="10.21" r=".482"/>
      <circle class="st0" cx="22.14" cy="11.436" r=".482"/>
      <circle class="st0" cx="23.365" cy="12.661" r=".482"/>
      <circle class="st0" cx="24.591" cy="13.886" r=".482"/>
      <circle class="st0" cx="16.177" cy="7.596" r=".482"/>
      <circle class="st0" cx="17.403" cy="8.822" r=".482"/>
      <circle class="st0" cx="18.628" cy="10.047" r=".482"/>
      <circle class="st0" cx="19.853" cy="11.272" r=".482"/>
      <circle class="st0" cx="21.078" cy="12.498" r=".482"/>
      <circle class="st0" cx="22.304" cy="13.723" r=".482"/>
      <circle class="st0" cx="23.529" cy="14.948" r=".482"/>
      <circle class="st0" cx="15.115" cy="8.658" r=".482"/>
      <circle class="st0" cx="16.341" cy="9.884" r=".482"/>
      <circle class="st0" cx="17.566" cy="11.109" r=".482"/>
      <circle class="st0" cx="18.791" cy="12.334" r=".482"/>
      <circle class="st0" cx="20.017" cy="13.559" r=".482"/>
      <circle class="st0" cx="21.242" cy="14.785" r=".482"/>
      <circle class="st0" cx="22.467" cy="16.01" r=".482"/>
      <circle class="st0" cx="15.279" cy="10.945" r=".482"/>
      <circle class="st0" cx="16.504" cy="12.171" r=".482"/>
      <circle class="st0" cx="17.729" cy="13.396" r=".482"/>
      <circle class="st0" cx="18.955" cy="14.621" r=".482"/>
      <circle class="st0" cx="20.18" cy="15.846" r=".482"/>
    </g>
  </g>
</svg>