<?xml version="1.0" encoding="UTF-8" standalone="no"?>
<!-- Created with Inkscape (http://www.inkscape.org/) -->

<svg
   width="10.015572mm"
   height="10.005465mm"
   viewBox="0 0 10.015572 10.005465"
   version="1.1"
   id="svg1"
   xmlns:inkscape="http://www.inkscape.org/namespaces/inkscape"
   xmlns:sodipodi="http://sodipodi.sourceforge.net/DTD/sodipodi-0.dtd"
   xmlns="http://www.w3.org/2000/svg"
   xmlns:svg="http://www.w3.org/2000/svg">
  <sodipodi:namedview
     id="namedview1"
     pagecolor="#ffffff"
     bordercolor="#000000"
     borderopacity="0.25"
     inkscape:showpageshadow="2"
     inkscape:pageopacity="0.0"
     inkscape:pagecheckerboard="0"
     inkscape:deskcolor="#d1d1d1"
     inkscape:document-units="mm" />
  <defs
     id="defs1">
    <clipPath
       clipPathUnits="userSpaceOnUse"
       id="clipPath139">
      <path
         d="M 0,2738.072 H 612 V 0 H 0 Z"
         transform="translate(-124.8613,-2146.2704)"
         id="path139" />
    </clipPath>
  </defs>
  <g
     inkscape:label="Layer 1"
     inkscape:groupmode="layer"
     id="layer1"
     transform="translate(-0.87017258,-1.2340358)">
    <path
       id="path138"
       d="m 0,0 c -0.705,-0.407 -0.832,-1.504 -0.285,-2.451 0.547,-0.948 1.563,-1.386 2.267,-0.98 0.706,0.407 0.833,1.504 0.285,2.452 C 1.72,-0.032 0.705,0.407 0,0 Z M 1.982,8.663 C 1.738,8.804 1.456,8.843 1.169,8.795 0.629,8.704 0.072,8.302 -0.285,7.684 -0.626,7.092 -0.705,6.443 -0.545,5.939 -0.448,5.636 -0.265,5.386 0,5.233 0.705,4.826 1.72,5.265 2.267,6.211 2.815,7.159 2.688,8.256 1.982,8.663 Z M 7.494,1.221 c 0.763,0.761 0.763,1.995 0,2.757 C 6.732,4.74 5.497,4.74 4.734,3.978 4.589,3.833 4.472,3.672 4.383,3.499 4.065,2.89 4.091,2.149 4.461,1.562 4.537,1.441 4.629,1.326 4.734,1.221 c 0.763,-0.762 1.998,-0.762 2.76,0 z m 0.824,-8.244 c -0.949,0.546 -2.047,0.42 -2.454,-0.285 -0.407,-0.704 0.031,-1.718 0.98,-2.265 0.948,-0.547 2.046,-0.42 2.454,0.285 0.406,0.704 -0.032,1.718 -0.98,2.265 z M 8.157,15.142 C 7.742,15.164 7.277,15.056 6.844,14.805 6.71,14.728 6.585,14.641 6.472,14.547 5.788,13.977 5.515,13.145 5.864,12.541 c 0.407,-0.704 1.505,-0.832 2.454,-0.285 0.948,0.547 1.386,1.561 0.98,2.265 -0.221,0.383 -0.647,0.595 -1.141,0.621 z m 2.379,-16.961 c -0.762,-0.761 -0.762,-1.995 0,-2.757 0.763,-0.762 1.998,-0.762 2.76,0 0.763,0.762 0.763,1.996 0,2.757 -0.762,0.762 -1.997,0.762 -2.76,0 z m 0,11.593 c -0.762,-0.762 -0.762,-1.996 0,-2.758 0.763,-0.761 1.998,-0.761 2.76,0 0.763,0.762 0.763,1.996 0,2.758 -0.762,0.761 -1.997,0.761 -2.76,0 z m 4.979,-16.797 c -0.947,-0.547 -1.387,-1.561 -0.98,-2.265 0.408,-0.705 1.506,-0.832 2.454,-0.285 0.949,0.547 1.387,1.561 0.98,2.265 -0.407,0.705 -1.505,0.831 -2.454,0.285 z m 0,19.279 c 0.949,-0.547 2.047,-0.419 2.454,0.285 0.407,0.704 -0.031,1.718 -0.98,2.264 -0.945,0.546 -2.04,0.421 -2.45,-0.277 -10e-4,-0.002 -0.003,-0.005 -0.004,-0.007 -0.322,-0.556 -0.115,-1.307 0.455,-1.867 0.15,-0.149 0.327,-0.283 0.525,-0.398 z m 0.824,-8.278 c -0.763,-0.762 -0.763,-1.996 0,-2.757 0.762,-0.762 1.997,-0.762 2.76,0 0.762,0.761 0.762,1.995 0,2.757 -0.763,0.762 -1.998,0.762 -2.76,0 z M 23.833,0 c -0.705,0.407 -1.72,-0.032 -2.267,-0.979 -0.547,-0.948 -0.42,-2.045 0.285,-2.452 0.704,-0.406 1.72,0.032 2.267,0.98 0.547,0.947 0.42,2.044 -0.285,2.451 z M 21.851,8.663 C 21.146,8.256 21.019,7.159 21.566,6.211 c 0.547,-0.946 1.562,-1.385 2.267,-0.978 0.705,0.406 0.832,1.504 0.285,2.451 -0.547,0.947 -1.563,1.385 -2.267,0.979 z m 2.706,-12.094 c -3.344,-6.975 -11.713,-9.92 -18.694,-6.58 -1.377,0.658 -2.597,1.513 -3.644,2.513 -0.547,0.523 -1.045,1.086 -1.494,1.681 -0.034,0.045 -0.068,0.091 -0.101,0.136 -0.022,0.029 -0.043,0.059 -0.064,0.088 -0.029,0.04 -0.058,0.08 -0.087,0.121 -0.027,0.039 -0.054,0.078 -0.081,0.117 -0.193,0.279 -0.376,0.564 -0.547,0.856 -0.018,0.029 -0.035,0.058 -0.051,0.087 -0.007,0.01 -0.012,0.02 -0.017,0.03 -0.02,0.033 -0.039,0.067 -0.058,0.1 -0.008,0.014 -0.015,0.028 -0.024,0.042 -1.849,3.297 -2.341,7.295 -1.148,11.063 0.197,0.622 0.439,1.237 0.729,1.841 0.112,0.234 0.23,0.462 0.352,0.687 h 0.001 c 1.326,2.419 3.278,4.303 5.555,5.546 1.195,0.653 2.48,1.129 3.811,1.413 2.924,0.626 6.07,0.324 8.975,-1.066 0.513,-0.245 1.003,-0.517 1.471,-0.814 0.001,-10e-4 0.003,-0.002 0.005,-0.003 0.039,-0.025 0.078,-0.05 0.117,-0.075 0.041,-0.027 0.081,-0.053 0.121,-0.08 0.081,-0.053 0.16,-0.107 0.239,-0.162 0.028,-0.019 0.056,-0.038 0.084,-0.059 0.026,-0.018 0.052,-0.036 0.078,-0.055 0.057,-0.041 0.114,-0.082 0.171,-0.124 0.044,-0.032 0.089,-0.066 0.133,-0.099 0.751,-0.567 1.433,-1.203 2.041,-1.892 3.605,-4.088 4.631,-10.089 2.127,-15.312 z M 0,0 c -0.705,-0.407 -0.832,-1.504 -0.285,-2.451 0.547,-0.948 1.563,-1.386 2.267,-0.98 0.706,0.407 0.833,1.504 0.285,2.452 C 1.72,-0.032 0.705,0.407 0,0 Z M 1.982,8.663 C 1.738,8.804 1.456,8.843 1.169,8.795 0.629,8.704 0.072,8.302 -0.285,7.684 -0.626,7.092 -0.705,6.443 -0.545,5.939 -0.448,5.636 -0.265,5.386 0,5.233 0.705,4.826 1.72,5.265 2.267,6.211 2.815,7.159 2.688,8.256 1.982,8.663 Z M 7.494,1.221 c 0.763,0.761 0.763,1.995 0,2.757 C 6.732,4.74 5.497,4.74 4.734,3.978 4.589,3.833 4.472,3.672 4.383,3.499 4.065,2.89 4.091,2.149 4.461,1.562 4.537,1.441 4.629,1.326 4.734,1.221 c 0.763,-0.762 1.998,-0.762 2.76,0 z m 0.824,-8.244 c -0.949,0.546 -2.047,0.42 -2.454,-0.285 -0.407,-0.704 0.031,-1.718 0.98,-2.265 0.948,-0.547 2.046,-0.42 2.454,0.285 0.406,0.704 -0.032,1.718 -0.98,2.265 z M 8.157,15.142 C 7.742,15.164 7.277,15.056 6.844,14.805 6.71,14.728 6.585,14.641 6.472,14.547 5.788,13.977 5.515,13.145 5.864,12.541 c 0.407,-0.704 1.505,-0.832 2.454,-0.285 0.948,0.547 1.386,1.561 0.98,2.265 -0.221,0.383 -0.647,0.595 -1.141,0.621 z m 2.379,-16.961 c -0.762,-0.761 -0.762,-1.995 0,-2.757 0.763,-0.762 1.998,-0.762 2.76,0 0.763,0.762 0.763,1.996 0,2.757 -0.762,0.762 -1.997,0.762 -2.76,0 z m 0,11.593 c -0.762,-0.762 -0.762,-1.996 0,-2.758 0.763,-0.761 1.998,-0.761 2.76,0 0.763,0.762 0.763,1.996 0,2.758 -0.762,0.761 -1.997,0.761 -2.76,0 z m 4.979,-16.797 c -0.947,-0.547 -1.387,-1.561 -0.98,-2.265 0.408,-0.705 1.506,-0.832 2.454,-0.285 0.949,0.547 1.387,1.561 0.98,2.265 -0.407,0.705 -1.505,0.831 -2.454,0.285 z m 0,19.279 c 0.949,-0.547 2.047,-0.419 2.454,0.285 0.407,0.704 -0.031,1.718 -0.98,2.264 -0.945,0.546 -2.04,0.421 -2.45,-0.277 -10e-4,-0.002 -0.003,-0.005 -0.004,-0.007 -0.322,-0.556 -0.115,-1.307 0.455,-1.867 0.15,-0.149 0.327,-0.283 0.525,-0.398 z m 0.824,-8.278 c -0.763,-0.762 -0.763,-1.996 0,-2.757 0.762,-0.762 1.997,-0.762 2.76,0 0.762,0.761 0.762,1.995 0,2.757 -0.763,0.762 -1.998,0.762 -2.76,0 z M 23.833,0 c -0.705,0.407 -1.72,-0.032 -2.267,-0.979 -0.547,-0.948 -0.42,-2.045 0.285,-2.452 0.704,-0.406 1.72,0.032 2.267,0.98 0.547,0.947 0.42,2.044 -0.285,2.451 z M 21.851,8.663 C 21.146,8.256 21.019,7.159 21.566,6.211 c 0.547,-0.946 1.562,-1.385 2.267,-0.978 0.705,0.406 0.832,1.504 0.285,2.451 -0.547,0.947 -1.563,1.385 -2.267,0.979 z m 2.706,-12.094 c -3.344,-6.975 -11.713,-9.92 -18.694,-6.58 -1.377,0.658 -2.597,1.513 -3.644,2.513 -0.547,0.523 -1.045,1.086 -1.494,1.681 -0.034,0.045 -0.068,0.091 -0.101,0.136 -0.022,0.029 -0.043,0.059 -0.064,0.088 -0.029,0.04 -0.058,0.08 -0.087,0.121 -0.027,0.039 -0.054,0.078 -0.081,0.117 -0.193,0.279 -0.376,0.564 -0.547,0.856 -0.018,0.029 -0.035,0.058 -0.051,0.087 -0.007,0.01 -0.012,0.02 -0.017,0.03 -0.02,0.033 -0.039,0.067 -0.058,0.1 -0.008,0.014 -0.015,0.028 -0.024,0.042 -1.849,3.297 -2.341,7.295 -1.148,11.063 0.197,0.622 0.439,1.237 0.729,1.841 0.112,0.234 0.23,0.462 0.352,0.687 h 0.001 c 1.326,2.419 3.278,4.303 5.555,5.546 1.195,0.653 2.48,1.129 3.811,1.413 2.924,0.626 6.07,0.324 8.975,-1.066 0.513,-0.245 1.003,-0.517 1.471,-0.814 0.001,-10e-4 0.003,-0.002 0.005,-0.003 0.039,-0.025 0.078,-0.05 0.117,-0.075 0.041,-0.027 0.081,-0.053 0.121,-0.08 0.081,-0.053 0.16,-0.107 0.239,-0.162 0.028,-0.019 0.056,-0.038 0.084,-0.059 0.026,-0.018 0.052,-0.036 0.078,-0.055 0.057,-0.041 0.114,-0.082 0.171,-0.124 0.044,-0.032 0.089,-0.066 0.133,-0.099 0.751,-0.567 1.433,-1.203 2.041,-1.892 3.605,-4.088 4.631,-10.089 2.127,-15.312 z"
       style="fill:none;stroke:#ffffff;stroke-width:0.354;stroke-linecap:round;stroke-linejoin:round;stroke-miterlimit:4;stroke-dasharray:none;stroke-opacity:1"
       transform="matrix(0.35277776,0,0,-0.35277776,1.6740955,7.1599062)"
       clip-path="url(#clipPath139)"
       inkscape:export-filename="path138.svg"
       inkscape:export-xdpi="96"
       inkscape:export-ydpi="96" />
  </g>
</svg>
